<?xml version="1.0" standalone="no"?><!DOCTYPE svg PUBLIC "-//W3C//DTD SVG 1.1//EN" "http://www.w3.org/Graphics/SVG/1.1/DTD/svg11.dtd"><svg t="1749395479220" class="icon" viewBox="0 0 1024 1024" version="1.1" xmlns="http://www.w3.org/2000/svg" p-id="17424" xmlns:xlink="http://www.w3.org/1999/xlink" width="200" height="200"><path d="M531.911111 837.688889c-2.844444 0-7.111111 0-9.955555-1.422222l-46.933334-17.066667c-72.533333-27.022222-153.6-38.4-231.822222-31.288889l-21.333333 1.422222c-8.533333 0-15.644444-1.422222-21.333334-7.111111s-9.955556-12.8-9.955555-21.333333V273.066667c0-14.222222 11.377778-27.022222 27.022222-28.444445l32.711111-2.844444c86.755556-5.688889 173.511111 7.111111 254.577778 38.4l28.444444 11.377778 45.511111-17.066667c82.488889-29.866667 173.511111-41.244444 261.688889-31.288889l8.533334 1.422222c14.222222 1.422222 25.6 14.222222 25.6 28.444445v487.822222c0 8.533333-2.844444 15.644444-9.955556 21.333333-5.688889 5.688889-14.222222 8.533333-22.755555 7.111111-81.066667-9.955556-163.555556-1.422222-238.933334 25.6l-59.733333 21.333334c-4.266667 1.422222-8.533333 1.422222-11.377778 1.422222z m-240.355555-109.511111c69.688889 0 139.377778 12.8 203.377777 36.977778l36.977778 14.222222 49.777778-18.488889c73.955556-25.6 155.022222-36.977778 233.244444-31.288889V298.666667c-73.955556-5.688889-149.333333 4.266667-219.022222 29.866666L540.444444 348.444444c-7.111111 2.844444-14.222222 2.844444-19.911111 0L483.555556 332.8c-72.533333-28.444444-150.755556-39.822222-228.977778-34.133333h-7.111111v430.933333c14.222222 0 28.444444-1.422222 44.088889-1.422222z" fill="#3FA6AD" p-id="17425"></path><path d="M531.911111 837.688889c-15.644444 0-28.444444-12.8-28.444444-28.444445V321.422222c0-15.644444 12.8-28.444444 28.444444-28.444444s28.444444 12.8 28.444445 28.444444v487.822222c0 15.644444-12.8 28.444444-28.444445 28.444445z" fill="#3FA6AD" p-id="17426"></path><path d="M620.088889 446.577778c-12.8 0-24.177778-8.533333-27.022222-21.333334-4.266667-15.644444 4.266667-31.288889 19.911111-35.555555 4.266667-1.422222 88.177778-24.177778 152.177778-27.022222 15.644444-1.422222 28.444444 11.377778 29.866666 27.022222 0 15.644444-11.377778 28.444444-27.022222 29.866667-56.888889 1.422222-137.955556 24.177778-139.377778 25.6-4.266667 1.422222-5.688889 1.422222-8.533333 1.422222z" fill="#DC4569" p-id="17427"></path></svg>